<svg id="Layer_1" data-name="Layer 1" xmlns="http://www.w3.org/2000/svg" viewBox="0 0 357 401"><title>manager Assist login</title><rect x="0.16" y="0.32" width="356.84" height="400.68" fill="#f27121"/><path d="M95.2,260.78c-.16-3.13-.36-6.89-.33-9.69h-.1c-.77,2.63-1.7,5.43-2.83,8.52L88,270.5h-2.2l-3.62-10.69c-1.07-3.16-2-6.05-2.6-8.72H79.5c-.07,2.8-.24,6.56-.44,9.92l-.6,9.62H75.7l1.57-22.43H81l3.83,10.85c.93,2.76,1.69,5.22,2.26,7.55h.1c.56-2.26,1.36-4.72,2.36-7.55l4-10.85H97.2l1.4,22.43H95.77Z" fill="#fff"/><path d="M112.07,270.63l-.23-2h-.1a6,6,0,0,1-4.92,2.4,4.6,4.6,0,0,1-4.93-4.63c0-3.89,3.46-6,9.69-6v-.33c0-1.33-.37-3.73-3.66-3.73a8.06,8.06,0,0,0-4.2,1.2l-.66-1.93a10,10,0,0,1,5.29-1.43c4.92,0,6.12,3.36,6.12,6.59v6a22.61,22.61,0,0,0,.27,3.86Zm-.43-8.22c-3.19-.07-6.82.5-6.82,3.63a2.59,2.59,0,0,0,2.76,2.79,4,4,0,0,0,3.9-2.69,3.08,3.08,0,0,0,.16-.93Z" fill="#fff"/><path d="M119.2,258.88c0-1.66,0-3-.14-4.36h2.6l.17,2.66h.06a5.92,5.92,0,0,1,5.33-3c2.23,0,5.69,1.33,5.69,6.85v9.62H130v-9.29c0-2.59-1-4.75-3.73-4.75a4.16,4.16,0,0,0-3.93,3,4.35,4.35,0,0,0-.2,1.37v9.68H119.2Z" fill="#fff"/><path d="M146.58,270.63l-.23-2h-.1a6,6,0,0,1-4.92,2.4,4.59,4.59,0,0,1-4.93-4.63c0-3.89,3.46-6,9.69-6v-.33c0-1.33-.37-3.73-3.67-3.73a8.05,8.05,0,0,0-4.19,1.2l-.66-1.93a10,10,0,0,1,5.29-1.43c4.92,0,6.12,3.36,6.12,6.59v6a22.61,22.61,0,0,0,.27,3.86Zm-.43-8.22c-3.19-.07-6.82.5-6.82,3.63a2.59,2.59,0,0,0,2.76,2.79,4,4,0,0,0,3.9-2.69,3.08,3.08,0,0,0,.16-.93Z" fill="#fff"/><path d="M167.58,254.52c-.06,1.17-.13,2.47-.13,4.43v9.35c0,3.69-.73,6-2.3,7.36a8.53,8.53,0,0,1-5.85,1.92,10.36,10.36,0,0,1-5.36-1.33l.73-2.23a9.06,9.06,0,0,0,4.73,1.27c3,0,5.19-1.57,5.19-5.62v-1.8h-.07a5.74,5.74,0,0,1-5.12,2.69c-4,0-6.86-3.39-6.86-7.85,0-5.46,3.56-8.55,7.26-8.55a5.36,5.36,0,0,1,5,2.79h.07l.13-2.43Zm-3,6.36a4.27,4.27,0,0,0-4.26-4.43c-2.79,0-4.79,2.37-4.79,6.09,0,3.16,1.6,5.79,4.76,5.79a4.28,4.28,0,0,0,4.06-3,5,5,0,0,0,.23-1.57Z" fill="#fff"/><path d="M173.94,263.11c.07,4,2.6,5.59,5.52,5.59a10.65,10.65,0,0,0,4.46-.83l.5,2.09a13,13,0,0,1-5.36,1c-4.95,0-7.92-3.26-7.92-8.12s2.87-8.68,7.56-8.68c5.26,0,6.65,4.62,6.65,7.58a9.93,9.93,0,0,1-.1,1.37Zm8.59-2.1c0-1.86-.77-4.76-4.06-4.76-3,0-4.26,2.73-4.5,4.76Z" fill="#fff"/><path d="M189,259.55c0-1.9,0-3.53-.13-5h2.56l.1,3.16h.13a4.84,4.84,0,0,1,4.46-3.52,3.07,3.07,0,0,1,.84.1V257a4.28,4.28,0,0,0-1-.1c-2.07,0-3.53,1.56-3.93,3.76a7.85,7.85,0,0,0-.13,1.36v8.59H189Z" fill="#fff"/><path d="M210.65,263.57l-2.33,7.06h-3l7.62-22.43h3.5l7.65,22.43H221l-2.4-7.06Zm7.35-2.26-2.2-6.45c-.5-1.47-.83-2.8-1.16-4.1h-.07c-.33,1.33-.7,2.7-1.13,4.06l-2.2,6.49Z" fill="#fff"/><path d="M226.69,267.63a7.6,7.6,0,0,0,3.86,1.17c2.13,0,3.12-1.07,3.12-2.4s-.83-2.16-3-3c-2.9-1-4.26-2.63-4.26-4.56,0-2.59,2.1-4.72,5.56-4.72a8,8,0,0,1,4,1l-.73,2.13a6.29,6.29,0,0,0-3.3-.94c-1.73,0-2.7,1-2.7,2.2s1,1.93,3.07,2.73c2.79,1.06,4.22,2.46,4.22,4.86,0,2.83-2.19,4.82-6,4.82a9.16,9.16,0,0,1-4.53-1.1Z" fill="#fff"/><path d="M239.86,267.63a7.66,7.66,0,0,0,3.86,1.17c2.13,0,3.13-1.07,3.13-2.4s-.83-2.16-3-3c-2.9-1-4.26-2.63-4.26-4.56,0-2.59,2.09-4.72,5.56-4.72a8,8,0,0,1,4,1l-.74,2.13a6.22,6.22,0,0,0-3.29-.94c-1.73,0-2.7,1-2.7,2.2s1,1.93,3.07,2.73c2.79,1.06,4.22,2.46,4.22,4.86,0,2.83-2.2,4.82-6,4.82a9.13,9.13,0,0,1-4.53-1.1Z" fill="#fff"/><path d="M256.7,250a1.81,1.81,0,0,1-3.62,0,1.78,1.78,0,0,1,1.83-1.83A1.73,1.73,0,0,1,256.7,250Zm-3.26,20.63V254.52h2.93v16.11Z" fill="#fff"/><path d="M260.83,267.63a7.66,7.66,0,0,0,3.86,1.17c2.13,0,3.13-1.07,3.13-2.4s-.83-2.16-3-3c-2.89-1-4.26-2.63-4.26-4.56,0-2.59,2.1-4.72,5.56-4.72a8,8,0,0,1,4,1l-.73,2.13a6.26,6.26,0,0,0-3.3-.94c-1.73,0-2.69,1-2.69,2.2s1,1.93,3.06,2.73c2.8,1.06,4.23,2.46,4.23,4.86,0,2.83-2.2,4.82-6,4.82a9.12,9.12,0,0,1-4.52-1.1Z" fill="#fff"/><path d="M277.94,249.9v4.62h4.19v2.23h-4.19v8.69c0,2,.56,3.13,2.19,3.13a6.53,6.53,0,0,0,1.7-.2l.13,2.19a7,7,0,0,1-2.59.4,4,4,0,0,1-3.16-1.23c-.84-.86-1.14-2.29-1.14-4.19v-8.79h-2.49v-2.23h2.49v-3.86Z" fill="#fff"/><path d="M191,227.08H180.61c-.47,0-.5-.69-.8-1.59l-8.87-27.65a12.38,12.38,0,0,0,4.06-1.72l2.72-3.18c.73.49,1.43,1.29,2.34,1.8.38.21.61.37,1,.55a14.2,14.2,0,0,0,2.12.77,11,11,0,0,0,9.82-2.31c.35-.27.52-.48.82-.68l2.29,2.61c1.35,1.57,2.22,1.19,4.24,2.16l-8.8,28.47c-.11.4,0,.77-.49.77Zm9.29-46.94a9.83,9.83,0,0,1,.23-1.39c.08-.49.18-1,.23-1.4a20.88,20.88,0,0,0,.29-3.1,3.12,3.12,0,0,1,1.13-.63,10.25,10.25,0,0,1-1.61,6.17.35.35,0,0,1-.05.08l-.22.27Zm-31-6.52a4.08,4.08,0,0,1,1.38.75,35.47,35.47,0,0,0,.88,6.15,7.77,7.77,0,0,1-1.65-2.87,11.17,11.17,0,0,1-.61-4Zm5.52-.88c0,5.79,2,13.27,5.75,17,2.84,2.84,6.49,3.42,9.64.92s5.05-7,5.83-10.85a31.45,31.45,0,0,0,.87-6.54c0-3.23.33-3.31-.71-3.81a12.58,12.58,0,0,1-5.06-4.47,5.36,5.36,0,0,0-.79.72c-.28.27-.51.42-.82.69-3.49,3-10.16,6-14.71,6v.38Zm-6-4.77v3c-3.35.08-2,7.21.1,10.32a10.89,10.89,0,0,0,2,2.26c1.52,1.4,1.77.85,2.26,2.14a33,33,0,0,0,1.92,3.86l-1.79,2.1c-.38.39-.53.68-.94,1.07a21.61,21.61,0,0,1-4.29,1.73c-.48.16-.93.34-1.46.54-5,1.91-4.28,1.32-8.39,4.54a17.53,17.53,0,0,0-2.46,2.56c-5.56,7.18-7.28,15.2-7.28,24.72a2.4,2.4,0,0,0,.65,1.61c.51.51.88.54,1.86.53,1.53,0,2.86.12,4.52.12h5a2,2,0,0,0,1.63,2.14h47.06c1,0,1.73-1.12,1.75-2.14h7c.76,0,1.21-.14,2.13-.13s1.29.08,1.91-.35c1.15-.79.85-1.92.85-3.79,0-10.66-4.1-23.25-14-28.2-1.29-.64-6.87-2.66-8.35-3.19a6.12,6.12,0,0,1-1.35-.53l-2.69-3.22,1.91-3.74c.81-2.06.79-.89,2.77-2.88a12.26,12.26,0,0,0,1.24-1.52,10.4,10.4,0,0,0,1.07-1.81,12,12,0,0,0,1.17-6.11,2.44,2.44,0,0,0-2.38-2.76,22.15,22.15,0,0,0,.37-5.52,14.85,14.85,0,0,0-1.54-6.11,13.46,13.46,0,0,0-2.29-3.36,4.54,4.54,0,0,0-1-1,17.31,17.31,0,0,0-11.21-4.23c-4.58,0-7.93.24-11.69,3a14.45,14.45,0,0,0-5,7.31A23.53,23.53,0,0,0,168.81,168Z" fill="#fff" fill-rule="evenodd"/><path d="M184.5,114.76V141c-11.81,0-21.84-3.12-22.59-3.14a31.09,31.09,0,0,1,1.52-4.12c1.43-3.51,4.79-9.58,7.55-12.41.3-.31.34-.45.62-.75s.48-.48.76-.75a28.94,28.94,0,0,1,3.1-2.67,18.43,18.43,0,0,1,1.66-1.11,4.43,4.43,0,0,1,2-.89,45.36,45.36,0,0,1,5.39-.39Zm15.31,2Zm-28.11,0,0,0c-.33.5-.61.56-1,1l-2.82,3.2A52.18,52.18,0,0,0,160,135.42c-.19.5-.37,1.13-.57,1.56-1.21-.29-3-1.5-3.66.12s2.09,2.2,2.78,2.26a6.58,6.58,0,0,1-.42,1.84l-1.3,5.47c-.26,1.31-.49,2.47-.68,3.84s-.83,2.87.51,3.42a1.27,1.27,0,0,0,1.52-.51c.23-.35,1-5.12,1.09-5.81.27-1.35.52-2.4.84-3.68l.95-3.69a6.59,6.59,0,0,1,1.31.32,87.31,87.31,0,0,0,22.16,2.94v2.64c0,1.07-.09,1.58.6,2a1.26,1.26,0,0,0,1.77-.41c.37-.69,0-2.91.12-3.77s1-.29,3.52-.5,4.62-.31,7.25-.65c.77-.1,1.53-.1,1.89-.75a1.31,1.31,0,0,0-.53-1.8c-.52-.29-1.55,0-2.21.06a84,84,0,0,1-9.9.64V114.76a36.61,36.61,0,0,1,6,.5c2.14.61,6.56,4.63,8.09,6.58a43,43,0,0,1,3.39,4.77c.41.67.7,1.56,1.91,1.31,2.11-.44-.07-3.21-.65-4.07a42.25,42.25,0,0,0-4.31-5.48l-1.66-1.6c1.31.11,7.28,2.55,8.7,3.35.58.33,1,.55,1.63.88,1.07.6,2,1.17,3,1.85a43.32,43.32,0,0,1,6.17,4.74,31.64,31.64,0,0,1,4.3,4.37,2.27,2.27,0,0,0-.84.41c-.29.17-.55.31-.79.46a1.27,1.27,0,0,0-.24,1.87c1.14,1.26,2.4-.44,3.5-.74a40.17,40.17,0,0,1,4,5.69c.4.73.81,1.4,1.18,2.09a50.45,50.45,0,0,1,3.69,9.24,5.67,5.67,0,0,0,.91,2.22,2.58,2.58,0,0,0,4.2-.89c.73-2-3.08-10.41-3.91-12.07a56.83,56.83,0,0,0-4.93-8,55.43,55.43,0,0,0-6-6.9l-4.29-3.74c-.37-.28-.54-.44-.91-.72a54.75,54.75,0,0,0-5.82-3.85c-1.4-.8-2.8-1.47-4.3-2.22a55.26,55.26,0,0,0-9.52-3.41c-1.73-.43-3.4-.81-5.3-1.1a40.85,40.85,0,0,0-6-.56,54.84,54.84,0,0,0-9.32.34c-1.06.14-1.89.26-2.85.42A56.54,56.54,0,0,0,166,113.31a51.32,51.32,0,0,0-5.54,2.48c-.38.23-.66.35-1.07.56a61.26,61.26,0,0,0-5.94,3.73c-2.35,1.76.15,5.84,3,4.09l1.93-1.32a48.53,48.53,0,0,1,8.48-4.45A28.16,28.16,0,0,1,171.7,116.77Z" fill="#fff" fill-rule="evenodd"/><path d="M130.41,163.45c0,6.29.15,9.23,1.66,15.29a50.63,50.63,0,0,0,3.61,10.06c.77,1.54,1.46,3,2.35,4.43a60.08,60.08,0,0,0,5.34,7.58l2,2.27c1.2,1.21,1.31,1.41,2.74,1.41s3.61-2.26,1.09-4.74a7.13,7.13,0,0,1-.77-.86c-.31-.4-.58-.47-.7-.93l2.64-1.38a51,51,0,0,1,8.54-3.62c2.1-.7,4.06-1.25,6.34-1.82l5-1c1.57-.52,1.14-2.89-.93-2.44-1,.2-1.82.35-2.82.57l-5.57,1.33a10,10,0,0,0-.44-1.71,74.64,74.64,0,0,1-1.86-8.8c-.23-1.38-.05-2.92-1.59-2.92-1.77,0-1.09,2.34-1,3,.67,4.91,1.49,7,2.5,11.3a7.27,7.27,0,0,0-1.71.55l-1.66.6c-1,.38-2.15.91-3.16,1.36s-2,.92-3.05,1.47c-.34.17-.45.26-.71.41s-.5.24-.75.39c-.51.29-1,.58-1.51.87l-2.06-3a49.79,49.79,0,0,1-8.11-22,42.51,42.51,0,0,1-.37-4.78h9c1.54,0,1.44-2.51-.13-2.51h-8.91a46.1,46.1,0,0,1,.51-5.89,48.09,48.09,0,0,1,3.52-12.66c.46-1.12.87-1.46.87-2.78,0-2.35-3.69-3.34-4.85-.7C132.56,148.45,130.41,155.73,130.41,163.45Z" fill="#fff" fill-rule="evenodd"/><path d="M214,163.83h-6.65a1.26,1.26,0,0,0,0,2.51H214c0,1.22-.14,2-.13,3.14l-.34,4.68A93.65,93.65,0,0,1,212,184.25c-.43,2-.94,3.56-1.35,5.31-.77,0-6.44-1.76-7.91-1.76a1.31,1.31,0,0,0-.42,2.43,11.69,11.69,0,0,0,1.62.38,76,76,0,0,1,10.58,3c.46.17.92.37,1.43.57a62,62,0,0,1,7.87,3.8c-.15.57-1.81,2.1-2.6,3a2.45,2.45,0,0,0,.12,3.2,2.34,2.34,0,0,0,2.11.78c1.31,0,2.86-2,3.67-3a54.43,54.43,0,0,0,8.25-12.09c1.19-2.38,4.27-9.68,4.27-12.05a2.53,2.53,0,0,0-4.18-1.79c-.95.83-1.15,2.79-1.67,4.35a50.19,50.19,0,0,1-5,10.87l-3.26,4.77c-2-1.07-3.54-2.09-5.9-3.14a51.32,51.32,0,0,0-6.65-2.51c.68-1.42,2.22-9.27,2.46-10.84a80.73,80.73,0,0,0,1.06-13.25h8.4c1.17,0,1.46-2.51-.25-2.51H216.5c0-3.11-.16-5.2-.39-8.15-.08-1.08-.26-2.32-.42-3.47-.29-2.09-.22-2.56-1.83-2.56-.43,0-.86.58-.93,1.06a9.1,9.1,0,0,0,.19,1.69Z" fill="#fff" fill-rule="evenodd"/><path d="M205,138.36c0,5.55,6.86,8.41,10.58,4.67a5.78,5.78,0,0,0,1-1.21c3-4.95-1.14-9.74-4.72-9.74-2.22,0-3.5.24-5.18,2A7,7,0,0,0,205,138.36Z" fill="#fff" fill-rule="evenodd"/><path d="M232.31,164.71c0,6.83,9,8.69,11.88,3a6.3,6.3,0,1,0-11.88-3Z" fill="#fff" fill-rule="evenodd"/><path d="M139.07,131a5.82,5.82,0,0,0,.54,2.85,6.29,6.29,0,1,0,10.24-7l-.32-.3a6.24,6.24,0,0,0-6.95-1,5.83,5.83,0,0,0-2.38,2A6.24,6.24,0,0,0,139.07,131Z" fill="#fff" fill-rule="evenodd"/><path d="M150.49,167.17l.27.41a6.22,6.22,0,0,0,9.25,2.26,8.15,8.15,0,0,0,2.15-2.64c.82-1.06.52-4.19-.65-6a7,7,0,0,0-2-1.87,6.29,6.29,0,0,0-9.37,4.61,5.67,5.67,0,0,0,0,1.64l.22,1.29C150.47,167.24,150.39,167.07,150.49,167.17Z" fill="#fff" fill-rule="evenodd"/><path d="M182.49,226.07H189c0-2.22-.42-6.52-.49-9l-.42-6.48c-.09-.68-.12-1.86-.2-2.57l-.14-2.61h-4l-.49,9c0,.62-.12.62-.14,1.24Z" fill="#fff" fill-rule="evenodd"/><path d="M183.87,203.86h3.76c.49,0,1.24-1.44,1.55-1.85.58-.76.66-.77.38-1.45-.14-.33-.19-.49-.31-.82a12.29,12.29,0,0,1-.61-1.65h-5.77a8.82,8.82,0,0,1-.58,1.68c-.75,1.87-.64,1.12.53,2.89C183,203,183.52,203.86,183.87,203.86Z" fill="#fff" fill-rule="evenodd"/><path d="M162.16,167.2a8.15,8.15,0,0,1-2.15,2.64,6.19,6.19,0,0,1-9.25-2.26l-.27-.41a1.45,1.45,0,0,0,.3.88C154.71,174.4,161.92,170.23,162.16,167.2Z" fill="#fff" fill-rule="evenodd"/></svg>